<svg t="1672562222988" class="icon" viewBox="0 0 1024 1024" version="1.1" xmlns="http://www.w3.org/2000/svg" p-id="3598" width="200" height="200"><path d="M847.3 564.4H744.9L682.1 410c-3.4-8.4-11.7-13.7-20.7-13.3-9 0.4-16.8 6.4-19.5 15l-61.3 199.1-97.4-240.3c-3.4-8.3-11.8-14-20.6-13.3-9 0.4-16.8 6.3-19.5 14.9l-66.4 211.6-44.7-73.2c-3.5-5.7-9.5-9.5-16.2-10.1-6.7-0.6-13.3 2-17.8 7l-51.5 57h-69.8c-11.8 0-21.3 9.5-21.3 21.3s9.5 21.3 21.3 21.3H256c6 0 11.8-2.6 15.8-7l38.7-42.8 54.3 88.9c4.4 7.2 12.6 11.3 20.8 10 8.3-1 15.3-6.8 17.8-14.8l62.7-199.7 97.6 240.8c3.3 8.1 11.1 13.3 19.8 13.3h0.9c9-0.4 16.8-6.4 19.5-15l61.3-199.2 45.7 112.2c3.3 8 11.1 13.3 19.8 13.3h116.7c11.8 0 21.3-9.5 21.3-21.3-0.1-11.8-9.6-21.3-21.4-21.3z m-121.9 96.9c-5.7 0-11.1 2.3-15.1 6.3L512 866 313.7 667.6c-4-4-9.4-6.3-15.1-6.3-19 0-28.5 23-15.1 36.4l213 213.2c4.3 4.3 9.9 6.4 15.5 6.4s11.2-2.1 15.5-6.4l213-213.2c13.4-13.4 3.9-36.4-15.1-36.4z m157.8-477.7c-51.3-51.3-118.4-76.9-185.6-76.9-67.2 0-134.3 25.6-185.6 76.9-51.3-51.3-118.4-76.9-185.6-76.9s-134.3 25.6-185.6 76.9C54.7 269.7 41 400.8 99.6 501.3c3.9 6.7 11.3 10.7 19.1 10.7 16.6 0 27.5-17.8 19.3-32.3-45.9-81.5-39.8-186.1 25.4-258 47.4-52.2 115-78.3 185.7-71.2 52.2 5.2 100.3 30.9 137.5 68.1l10.3 10.3c8.3 8.3 21.9 8.3 30.2 0L538 218c36.5-36.5 83.8-61.8 135.1-67.3 70.4-7.6 137.8 17.7 185.4 68.8 66.9 71.8 73.7 177.7 27.4 260.2-8.1 14.5 2.8 32.3 19.4 32.3 7.8 0 15.2-4 19.1-10.7 58.6-100.5 44.9-231.6-41.2-317.7z" fill="#ffffff" p-id="3599"></path></svg>