<svg xmlns="http://www.w3.org/2000/svg" viewBox="0 0 92.83 48.47"><defs><style>.cls-1{fill:#231815;}</style></defs><g id="图层_2" data-name="图层 2"><g id="图层_1-2" data-name="图层 1"><path class="cls-1" d="M23.22,30.22l1.65-7.69H44.06L38.81,47.25H32.43l.25-5.75a30.07,30.07,0,0,1-6,4.62,20.23,20.23,0,0,1-9.87,2.35q-9.16,0-13.66-6.35Q-1.56,35.76.78,24.69t10-17.94A25.84,25.84,0,0,1,28.47,0q8.78,0,13.15,4.45a13.29,13.29,0,0,1,3.75,11.11H35.9Q35.81,10.85,32,9a11.62,11.62,0,0,0-5.07-1,14.29,14.29,0,0,0-10,4.2q-4.47,4.2-6.28,12.64t1.33,12a10.2,10.2,0,0,0,8,3.53,13.82,13.82,0,0,0,8.54-2.79,15.73,15.73,0,0,0,5.36-7.33Z"/><path class="cls-1" d="M91.12,8a16.72,16.72,0,0,1,1.7,7.44,36.77,36.77,0,0,1-.73,7.62,37.35,37.35,0,0,1-7,15.57q-6.81,8.6-17.25,8.59H48L57.78,1.19H77.62a22,22,0,0,1,6.91,1A11.25,11.25,0,0,1,91.12,8Zm-9,15.72q1.5-7,.1-10.8t-8-3.76H65.4L59,39.25H67.9q6.81,0,10.94-6.72A27.55,27.55,0,0,0,82.15,23.75Z"/></g></g></svg>